<svg height="512pt" viewBox="-131 0 512 512" width="512pt" xmlns="http://www.w3.org/2000/svg"><path d="m205.90625 347.335938h-35.835938c65.816407-96.472657 79.742188-151.90625 79.742188-181.527344 0-44.023438-22.746094-84.105469-59.949219-106.714844v-59.09375h-125.925781v56.777344c-39.136719 21.941406-63.9375 63.730468-63.9375 109.03125 0 53.066406 42.695312 127.199218 79.742188 181.527344h-40.167969v30h40.332031v88.953124l62.605469 45.710938h27.394531v-134.664062h36v17.332031h30v-64h-30zm-66-9.078126v134.691407l-30-21.902344v-112.789063l-2.648438-3.84375c-49.820312-72.289062-77.257812-132.167968-77.257812-168.605468 0-36.917969 21.675781-70.761719 55.21875-86.230469l8.71875-4.023437v-45.554688h65.925781v47.066406l8.171875 4.175782c31.9375 16.328124 51.777344 48.730468 51.777344 84.566406 0 36.4375-27.4375 96.316406-77.257812 168.605468zm0 0"/><path d="m126.574219 115.492188h-30v151.175781h30v-28.148438h31.332031v-30h-31.332031v-34.878906h31.332031v-30h-31.332031zm0 0"/></svg>